<svg id="Layer_1" data-name="Layer 1" xmlns="http://www.w3.org/2000/svg" viewBox="0 0 30.53 34.9"><defs><style>.cls-1{fill:#fff;}</style></defs><path class="cls-1" d="M15.49,12.85H13.77a10.75,10.75,0,0,0-10.71,9,11,11,0,0,0,7.55,12.55c4.55,1.6,9.82-.39,12.75-4.66,1.6-2.33,1.75-5,1.84-7.64.09-3,0-6.07,0-9.1,0-.37.06-.74.09-1.24,2.62,1.57,5.15,2.69,8.11,2.42V8.56C28.43,7.8,25.53,5,24.92.1H19.17V1.66c0,7.16,0,14.32,0,21.48,0,2.39-.85,4.29-3.22,5.31a4.71,4.71,0,0,1-5.09-.61,4.91,4.91,0,0,1-1.8-5.08,4.3,4.3,0,0,1,3.2-3.57,25.11,25.11,0,0,1,3.24-.42Z" transform="translate(-2.89 -0.1)"/></svg>