<svg id="Layer_1" data-name="Layer 1" xmlns="http://www.w3.org/2000/svg" viewBox="0 0 9.62 11"><defs><style>.cls-1{fill:#212121;}</style></defs><path class="cls-1" d="M5,4H4.47A3.38,3.38,0,0,0,1.1,6.87a3.46,3.46,0,0,0,2.38,4,3.57,3.57,0,0,0,4-1.47A4.26,4.26,0,0,0,8.07,7c0-1,0-1.91,0-2.87,0-.11,0-.23,0-.39a4.09,4.09,0,0,0,2.56.76V2.67A2.86,2.86,0,0,1,8,0H6.18V.49q0,3.39,0,6.77a1.64,1.64,0,0,1-1,1.67,1.49,1.49,0,0,1-1.61-.19A1.52,1.52,0,0,1,3,7.14,1.35,1.35,0,0,1,4,6a6.74,6.74,0,0,1,1-.13Z" transform="translate(-1.04)"/></svg>