<svg width="42" height="42" viewBox="0 0 42 42" fill="none" xmlns="http://www.w3.org/2000/svg">
<path d="M21 34.125C30.4254 34.125 38.0625 26.4879 38.0625 17.0625C38.0625 7.63711 30.4254 0 21 0C11.5746 0 3.9375 7.63711 3.9375 17.0625C3.9375 26.4879 11.5746 34.125 21 34.125ZM19.1789 7.98984V6.61172C19.1789 5.85703 19.7859 5.25 20.5406 5.25H21.4512C22.2059 5.25 22.8129 5.85703 22.8129 6.61172V8.00625C24.0844 8.07187 25.3148 8.50664 26.3402 9.26953C26.7996 9.60586 26.8488 10.2785 26.4387 10.6723L25.1016 11.9438C24.7898 12.2473 24.3223 12.2555 23.9531 12.0258C23.5102 11.7469 23.018 11.6074 22.493 11.6074H19.302C18.5637 11.6074 17.9648 12.2801 17.9648 13.1086C17.9648 13.7812 18.375 14.3801 18.9574 14.5523L24.068 16.0863C26.1762 16.718 27.6527 18.7441 27.6527 21.0164C27.6527 23.8055 25.4871 26.0613 22.8047 26.1352V27.5133C22.8047 28.268 22.1977 28.875 21.443 28.875H20.5324C19.7777 28.875 19.1707 28.268 19.1707 27.5133V26.1187C17.8992 26.0531 16.6687 25.6184 15.6434 24.8555C15.184 24.5191 15.1348 23.8465 15.5449 23.4527L16.882 22.1812C17.1938 21.8777 17.6613 21.8695 18.0305 22.0992C18.4734 22.3781 18.9656 22.5176 19.4906 22.5176H22.6816C23.4199 22.5176 24.0187 21.8449 24.0187 21.0164C24.0187 20.3438 23.6086 19.7449 23.0262 19.5727L17.9156 18.0387C15.8074 17.407 14.3309 15.3809 14.3309 13.1086C14.3391 10.3195 16.4965 8.06367 19.1789 7.98984ZM39.375 28.875H36.709C35.1012 31.0078 33.0504 32.7879 30.7207 34.125H35.9543C36.3891 34.125 36.7418 34.4203 36.7418 34.7812V36.0938C36.7418 36.4547 36.3891 36.75 35.9543 36.75H6.0375C5.60273 36.75 5.25 36.4547 5.25 36.0938V34.7812C5.25 34.4203 5.60273 34.125 6.0375 34.125H11.2711C8.94141 32.7879 6.89883 31.0078 5.28281 28.875H2.625C1.17305 28.875 0 30.048 0 31.5V39.375C0 40.827 1.17305 42 2.625 42H39.375C40.827 42 42 40.827 42 39.375V31.5C42 30.048 40.827 28.875 39.375 28.875Z" fill="black"/>
</svg>
